<svg xmlns="http://www.w3.org/2000/svg" width="188.59" height="127.507" viewBox="0 0 188.59 127.507">
  <defs>
    <style>
      .cls-1 {
        fill: #bd9bc9;
      }

      .cls-2 {
        fill: #6785c1;
      }
    </style>
  </defs>
  <g id="Grupo_21" data-name="Grupo 21" transform="translate(-153.499 -330.499)">
    <path id="Subtração_9" data-name="Subtração 9" class="cls-1" d="M-1289.5-545.993V-673.5h109.911a42.92,42.92,0,0,1,1.554,4.393,42.369,42.369,0,0,1,1.631,14.194c-.572,10.789-5.114,22.151-13.5,33.771a142.561,142.561,0,0,1-18.472,20.525,260.773,260.773,0,0,1-28.726,22.831,452.688,452.688,0,0,1-52.4,31.792h0Z" transform="translate(1443 1004)"/>
    <path id="Subtração_8" data-name="Subtração 8" class="cls-2" d="M129.979,183.556h0c-12.893,0-25.839-.6-38.478-1.773V119.5H280.09c-3.859,9.628-10.47,18.659-19.65,26.842a127.685,127.685,0,0,1-26.738,17.9,181.923,181.923,0,0,1-23.566,9.988c-6.109,2.1-10.1,3.092-10.135,3.1-.07.016-7.182,1.574-19.307,3.111-7.125.9-14.563,1.623-22.107,2.139C149.155,183.229,139.53,183.556,129.979,183.556Z" transform="translate(62 211)"/>
  </g>
</svg>
