<svg xmlns="http://www.w3.org/2000/svg" width="146.499" height="157.552" viewBox="0 0 146.499 157.552">
  <defs>
    <style>
      .cls-1 {
        fill: #6785c1;
      }

      .cls-2 {
        fill: #bd9bc9;
      }
    </style>
  </defs>
  <g id="Grupo_19" data-name="Grupo 19" transform="translate(-214.001 -482.448)">
    <path id="Subtração_5" data-name="Subtração 5" class="cls-1" d="M23.272,113.981c-.149,0-.15-.01-.151-.014s0-.023.434-.09c-.131-.063-.419-.156-.854-.3a36.021,36.021,0,0,1-14.658-8.465A26.582,26.582,0,0,1,1.392,94.129,37.052,37.052,0,0,1,.706,76.705c1.334-7.669,5.679-15.573,12.916-23.492a124.633,124.633,0,0,1,22.715-18.9,214.032,214.032,0,0,1,21.619-12.6c5.748-2.925,9.589-4.563,9.627-4.58a26.078,26.078,0,0,1,9.928-1.689,41.813,41.813,0,0,1,17.262,3.985v81.233c-8.48,2.879-20.688,5.662-36.286,8.272-12.722,2.129-24.451,3.6-30.752,4.394-2.035.256-3.5.44-4.179.544.057.027.08.047.077.062S23.515,113.981,23.272,113.981Z" transform="translate(265.726 467)"/>
    <path id="Subtração_6" data-name="Subtração 6" class="cls-2" d="M146.5,125H23.562a6.143,6.143,0,0,0-2.03-.951A37.7,37.7,0,0,1,9.78,117.455C4.432,112.821,1.2,106.568.173,98.87A19.2,19.2,0,0,1,3.965,84.709a38,38,0,0,1,11.192-9.776,75.628,75.628,0,0,1,17.176-7.491c.04-.015,4.337-1.522,31.063-6.578a145.817,145.817,0,0,0,22.886-6.818c7.318-2.729,15.479-6.152,24.256-10.175,15.437-7.075,27.828-13.736,29.6-14.8.837-.5,2.24-1.427,3.865-2.5.8-.525,1.62-1.067,2.5-1.639Z" transform="translate(214 515)"/>
  </g>
</svg>
